<?xml version="1.0" standalone="no"?>
<!DOCTYPE svg PUBLIC "-//W3C//DTD SVG 20010904//EN"
 "http://www.w3.org/TR/2001/REC-SVG-20010904/DTD/svg10.dtd">
<svg version="1.0" xmlns="http://www.w3.org/2000/svg"
 width="1200.000000pt" height="1200.000000pt" viewBox="0 0 1200.000000 1200.000000"
 preserveAspectRatio="xMidYMid meet">

<g transform="translate(0.000000,1200.000000) scale(0.100000,-0.100000)"
fill="#000000" stroke="none">
<path d="M5626 11610 c-788 -61 -1467 -245 -2136 -580 -826 -412 -1534 -1018
-2071 -1770 -703 -987 -1061 -2151 -1036 -3375 19 -951 266 -1843 739 -2675
65 -113 66 -115 183 -295 421 -648 1051 -1266 1705 -1670 19 -12 53 -33 75
-47 22 -15 96 -58 165 -96 688 -383 1394 -605 2190 -689 236 -25 875 -25 1115
0 509 53 968 161 1450 342 187 71 298 120 525 235 215 108 255 130 518 295
144 91 363 253 552 409 144 119 518 481 595 575 22 27 83 100 136 162 415 495
762 1114 980 1748 138 402 230 822 276 1268 25 238 25 877 0 1113 -84 798
-306 1502 -689 2190 -535 959 -1373 1764 -2353 2259 -626 317 -1218 494 -1934
577 -179 21 -272 26 -546 29 -181 2 -379 0 -439 -5z m840 -1334 c810 -96 1516
-376 2149 -852 306 -230 627 -551 859 -858 428 -566 718 -1251 825 -1951 39
-253 46 -364 46 -680 -1 -331 -12 -468 -61 -747 -132 -758 -471 -1479 -974
-2068 -116 -136 -345 -365 -484 -483 -674 -576 -1459 -916 -2364 -1024 -207
-25 -727 -25 -934 0 -900 107 -1695 451 -2363 1021 -131 112 -361 343 -478
480 -510 595 -848 1310 -981 2074 -49 279 -60 416 -61 747 0 394 23 623 100
965 226 1009 802 1896 1644 2534 621 471 1430 782 2196 846 77 6 151 13 165
15 66 9 597 -5 716 -19z"/>
<path d="M7390 9909 c-36 -4 -309 -35 -607 -68 -432 -49 -572 -61 -695 -61
-150 0 -198 3 -598 35 -107 8 -253 20 -325 25 -76 6 -182 23 -255 40 -157 37
-202 38 -235 5 -14 -13 -25 -35 -25 -48 0 -28 37 -151 83 -277 95 -260 161
-743 162 -1195 0 -292 -11 -381 -58 -474 -33 -66 -46 -70 -95 -31 -53 42 -97
43 -176 4 -90 -44 -166 -128 -194 -214 -18 -53 -24 -227 -12 -305 6 -44 25
-101 51 -155 35 -72 58 -101 143 -185 251 -249 638 -426 1021 -465 332 -35
701 46 1200 262 223 96 596 278 650 316 161 115 245 202 304 319 64 125 58
219 -19 306 -41 47 -74 59 -164 58 -119 -1 -119 0 -128 151 -16 297 -21 765
-9 903 24 264 64 459 142 685 58 170 69 210 69 265 0 103 -52 126 -230 104z
m-2105 -269 c182 -11 335 -27 344 -36 3 -3 -6 -32 -18 -67 -98 -263 -161 -475
-206 -691 -51 -248 -56 -311 -65 -761 -5 -287 -14 -483 -25 -591 -25 -229 -12
-286 78 -338 92 -54 146 -60 564 -60 247 -1 383 -5 384 -11 3 -17 -152 -93
-221 -109 -89 -21 -356 -39 -460 -31 -47 4 -115 13 -151 21 -144 29 -335 116
-435 197 -44 36 -144 153 -144 169 0 3 22 27 49 54 88 88 109 196 183 934 26
270 31 676 9 830 -22 157 -57 277 -116 397 -30 62 -55 114 -55 116 0 3 21 1
48 -4 26 -4 133 -13 237 -19z m-657 -1990 c-31 -51 -33 -59 -36 -164 -3 -94 0
-120 18 -168 39 -104 154 -242 297 -355 70 -56 105 -93 87 -93 -2 0 -31 13
-63 29 -110 56 -305 262 -369 390 -33 67 -37 83 -40 171 -6 152 23 229 94 249
45 13 48 -2 12 -59z m2717 -130 c46 -51 -23 -110 -355 -310 -118 -70 -251
-154 -295 -184 -75 -53 -117 -68 -129 -47 -11 17 29 49 215 174 196 131 400
277 484 345 28 23 53 41 56 42 3 0 14 -9 24 -20z"/>
<path d="M8165 6994 c-405 -26 -514 -48 -655 -129 -96 -55 -1094 -435 -1415
-538 -248 -79 -254 -80 -613 -74 -344 5 -442 17 -554 70 -115 53 -168 115
-263 304 -82 164 -116 198 -271 265 -164 71 -238 83 -494 83 -265 -1 -307 -6
-321 -43 -17 -42 -5 -429 15 -530 52 -257 165 -449 450 -765 l93 -103 -28 -49
c-47 -82 -98 -212 -130 -334 -38 -144 -71 -214 -114 -246 -36 -28 -116 -59
-180 -70 -70 -13 -71 -19 -1 -109 79 -101 126 -175 126 -197 0 -27 -31 -31
-111 -14 -41 9 -86 18 -100 21 -50 11 -43 -16 32 -125 454 -661 757 -938 1223
-1118 439 -170 1127 -218 1726 -122 479 76 864 254 1200 553 97 86 280 267
280 277 0 5 -15 15 -32 21 -71 25 -233 112 -271 147 -62 56 -78 102 -88 265
-26 393 -46 492 -118 569 -58 63 -170 93 -208 55 -9 -10 -25 -56 -34 -104 -10
-47 -26 -95 -36 -106 -20 -22 -37 -22 -174 7 -81 17 -91 17 -159 1 -40 -9
-116 -35 -169 -58 -81 -35 -107 -42 -164 -42 -65 -1 -70 1 -97 31 -56 63 -80
222 -51 343 17 68 72 192 108 238 15 21 51 46 89 64 53 25 81 31 163 35 222
13 327 -39 509 -249 18 -21 45 -40 60 -43 50 -10 166 -74 220 -121 28 -25 64
-66 78 -90 49 -83 57 -126 64 -349 6 -186 9 -217 30 -270 43 -111 196 -227
318 -242 44 -5 55 -2 94 25 27 19 56 52 76 88 116 204 143 255 138 263 -3 4
-36 11 -73 14 -73 7 -220 68 -208 87 3 6 23 17 43 26 109 45 162 103 162 178
0 39 6 36 -105 56 -83 16 -162 55 -180 90 -8 16 -22 79 -31 141 -16 119 -39
186 -99 288 -39 67 -65 132 -65 164 0 14 34 55 93 112 117 115 156 159 233
270 167 241 230 456 241 815 5 193 -3 284 -27 286 -8 1 -109 -4 -225 -12z
m-1913 -2843 c14 -9 99 -85 189 -170 179 -169 223 -197 292 -186 51 9 97 52
97 92 0 57 -9 67 -68 85 -80 25 -92 34 -68 53 23 18 88 20 119 4 127 -65 128
-226 2 -319 -97 -73 -183 -102 -335 -116 -161 -14 -292 25 -423 124 -37 29
-70 52 -72 52 -2 0 -52 -27 -112 -60 -142 -79 -239 -110 -347 -110 -160 0
-300 53 -397 150 -74 74 -82 108 -45 185 32 64 77 105 116 105 48 0 90 -12 90
-26 0 -18 -10 -23 -71 -34 -62 -12 -76 -22 -84 -61 -18 -82 75 -153 168 -128
29 8 72 42 176 142 158 153 248 224 295 233 37 6 69 -7 153 -64 l53 -35 61 43
c101 70 148 80 211 41z"/>
<path d="M4769 3143 c-117 -60 -154 -172 -153 -458 1 -337 62 -474 253 -567
62 -31 73 -33 194 -36 239 -7 308 23 519 223 l122 116 46 -50 c58 -65 104 -91
158 -91 57 0 90 18 146 81 l46 51 38 -24 c21 -14 87 -69 147 -122 171 -151
261 -186 478 -186 94 0 101 2 184 41 147 70 215 158 265 340 20 73 23 107 22
259 0 255 -27 358 -104 404 -40 23 -69 20 -184 -19 -102 -35 -208 -55 -500
-95 -154 -21 -235 -44 -284 -78 -23 -17 -35 -19 -72 -12 -61 12 -276 12 -338
0 -49 -9 -55 -7 -144 35 -97 46 -192 75 -393 120 -66 15 -161 42 -211 61 -113
42 -162 43 -235 7z m2001 -362 c0 -14 -76 -89 -107 -104 -15 -8 -58 -18 -95
-22 -85 -9 -101 -25 -64 -64 14 -15 23 -30 19 -34 -14 -14 -109 -6 -152 13
-48 22 -121 27 -121 8 0 -23 95 -103 138 -116 23 -7 53 -23 66 -35 13 -12 34
-29 47 -38 13 -9 19 -20 15 -27 -12 -19 -60 -14 -74 8 -9 15 -23 20 -60 20
-42 0 -51 4 -70 30 -15 19 -34 31 -59 36 -65 11 -83 28 -83 79 0 38 5 50 31
73 l31 28 -16 39 c-21 48 -13 54 69 55 33 1 126 5 207 9 119 7 154 12 185 29
39 21 93 29 93 13z m-1620 -21 c0 -6 35 -10 84 -10 46 0 122 -7 170 -15 68
-12 96 -13 131 -4 60 15 75 3 75 -62 0 -40 4 -51 24 -64 20 -13 23 -21 16 -43
-18 -61 -33 -80 -77 -97 -24 -9 -51 -27 -59 -40 -11 -17 -27 -24 -62 -28 -26
-2 -57 -8 -69 -12 l-23 -7 25 45 c21 36 32 46 61 52 20 3 51 21 69 38 19 18
44 40 57 49 20 15 21 19 8 27 -19 14 -74 4 -124 -21 -28 -15 -52 -19 -83 -15
-55 6 -63 13 -35 33 12 8 22 22 22 30 0 16 -57 44 -89 44 -11 0 -43 5 -71 11
-41 9 -53 16 -61 37 -6 15 -20 35 -32 44 l-22 18 33 0 c17 0 32 -4 32 -10z"/>
</g>
</svg>
